<?xml version="1.0" encoding="UTF-8"?>
<svg width="32px" height="32px" viewBox="0 0 32 32" version="1.1" xmlns="http://www.w3.org/2000/svg" xmlns:xlink="http://www.w3.org/1999/xlink">
    <!-- Generator: Sketch 55.1 (78136) - https://sketchapp.com -->
    <title>icon-heartbeat-32-color</title>
    <desc>Created with Sketch.</desc>
    <g id="icon-heartbeat-32-color" stroke="none" stroke-width="1" fill="none" fill-rule="evenodd">
        <path d="M4.2732,14.8369 C3.1992,13.5749 2.2572,12.2379 2.0542,10.6719 C1.7642,8.4409 2.6382,6.1169 4.3352,4.6089 C5.7202,3.3779 7.5062,2.7459 9.3532,2.8679 C10.8222,2.9539 12.1912,3.4969 13.2992,4.3949 L14.6042,2.8849 C13.1542,1.6939 11.3782,0.9829 9.4702,0.8709 C7.0842,0.7449 4.7902,1.5279 3.0062,3.1149 C0.8212,5.0569 -0.3038,8.0509 0.0712,10.9299 C0.3572,13.1299 1.6382,14.8529 2.9512,16.3669 L4.2732,14.8369 Z" id="Fill-1" fill="#00BFB3"></path>
        <path d="M7.3108,17.9883 L16.0148,28.1653 L26.8838,15.8013 C28.2468,14.2513 29.7918,12.4943 29.9848,10.3673 C30.1768,8.2533 29.2918,6.0463 27.6748,4.6083 C26.2898,3.3773 24.5028,2.7563 22.6568,2.8683 C20.8058,2.9763 19.1078,3.8003 17.8758,5.1853 L7.3108,17.9883 Z M15.9948,31.2173 L4.6988,18.0113 L16.3568,3.8843 C17.9678,2.0723 20.1548,1.0113 22.5388,0.8713 C24.9248,0.7313 27.2188,1.5273 29.0038,3.1143 C31.0858,4.9653 32.2248,7.8133 31.9768,10.5483 C31.7248,13.3253 29.8728,15.4303 28.3858,17.1223 L15.9948,31.2173 Z" id="Fill-3" fill="#535966"></path>
    </g>
</svg>