<?xml version="1.0" encoding="UTF-8"?>
<svg width="32px" height="32px" viewBox="0 0 32 32" version="1.1" xmlns="http://www.w3.org/2000/svg" xmlns:xlink="http://www.w3.org/1999/xlink">
    <!-- Generator: Sketch 55.1 (78136) - https://sketchapp.com -->
    <title>icon-functionbeat-32-color</title>
    <desc>Created with Sketch.</desc>
    <g id="icon-functionbeat-32-color" stroke="none" stroke-width="1" fill="none" fill-rule="evenodd">
        <g id="Group" transform="translate(0.000000, 1.000000)">
            <path d="M25.9546,23.9541 L25.9546,22.0461 C28.1846,22.0461 29.9996,20.2301 29.9996,18.0001 C29.9996,16.3321 28.9916,14.8571 27.4316,14.2441 L26.7036,13.9571 L26.8416,13.1871 C26.9486,12.5901 26.9996,12.0371 26.9996,11.5001 C26.9996,6.2361 22.7176,1.9541 17.4546,1.9541 C13.0336,1.9541 9.2226,4.9581 8.1846,9.2591 L8.0266,9.9181 L7.3506,9.9851 C4.2486,10.2921 1.9096,12.8781 1.9096,16.0001 C1.9096,19.3331 4.6216,22.0461 7.9546,22.0461 L7.9546,23.9541 C3.5686,23.9541 -0.000400000001,20.3861 -0.000400000001,16.0001 C-0.000400000001,12.1171 2.7516,8.8641 6.5006,8.1791 C7.9546,3.3581 12.3686,0.0461 17.4546,0.0461 C23.7706,0.0461 28.9096,5.1831 28.9096,11.5001 C28.9096,11.9241 28.8826,12.3511 28.8296,12.7951 C30.7226,13.8331 31.9096,15.8021 31.9096,18.0001 C31.9096,21.2831 29.2376,23.9541 25.9546,23.9541" id="Fill-1" fill="#535966"></path>
            <polygon id="Fill-4" fill="#00BFB3" points="12.875 30 15.248 30 23.121 18.008 13.571 18.008 19.801 8 17.465 8 10 19.992 19.446 19.992"></polygon>
        </g>
    </g>
</svg>